<svg width="103" height="98" viewBox="0 0 103 98" fill="none" xmlns="http://www.w3.org/2000/svg">
<path d="M51.4097 87.0451C57.9077 87.06 64.3002 85.4021 69.972 82.231C75.6438 79.06 80.4039 74.4824 83.7944 68.939H19.025C22.4154 74.4824 27.1755 79.06 32.8473 82.231C38.5191 85.4021 44.9116 87.06 51.4097 87.0451Z" fill="white"/>
<path d="M31.4929 58.0749C35.4928 58.0749 38.7353 54.0217 38.7353 49.0218C38.7353 44.022 35.4928 39.9688 31.4929 39.9688C27.493 39.9688 24.2504 44.022 24.2504 49.0218C24.2504 54.0217 27.493 58.0749 31.4929 58.0749Z" fill="white"/>
<path d="M56.8415 58.0749C60.8414 58.0749 64.084 54.0217 64.084 49.0218C64.084 44.022 60.8414 39.9688 56.8415 39.9688C52.8416 39.9688 49.5991 44.022 49.5991 49.0218C49.5991 54.0217 52.8416 58.0749 56.8415 58.0749Z" fill="white"/>
<path d="M51.4097 90.6663C43.9232 90.6809 36.5723 88.6689 30.1368 84.8436C23.7014 81.0183 18.4214 75.5224 14.8569 68.9389H7.1636C7.91335 69.5998 8.71841 70.1953 9.56992 70.7187C11.1542 71.6032 12.5445 72.7971 13.6583 74.2295C14.5701 75.8195 15.1521 77.577 15.3693 79.397C15.48 80.9008 15.9873 82.3483 16.8395 83.5922C18.0827 84.4445 19.5297 84.9518 21.0329 85.0624C22.8523 85.2787 24.6093 85.8601 26.1986 86.7716C27.6293 87.8821 28.823 89.268 29.7094 90.8473C30.3898 92.2046 31.4198 93.3559 32.6933 94.1825C34.1567 94.4944 35.6768 94.41 37.0967 93.938C38.8678 93.4385 40.7215 93.3018 42.5467 93.5361C44.2789 94.0093 45.8979 94.8271 47.3068 95.9406C48.4719 96.9547 49.8896 97.6348 51.4097 97.9087C52.929 97.6368 54.3466 96.9593 55.5125 95.9478C56.9241 94.8333 58.5462 94.0154 60.2817 93.5433C62.1057 93.316 63.9567 93.4552 65.7262 93.9525C67.148 94.4263 68.67 94.5144 70.1369 94.2078C71.4056 93.3739 72.4322 92.2204 73.1135 90.8636C73.9994 89.2782 75.1952 87.8872 76.6297 86.7734C78.2186 85.8604 79.9757 85.2784 81.7954 85.0624C83.2987 84.9518 84.7456 84.4445 85.9888 83.5922C86.8411 82.3483 87.3484 80.9008 87.459 79.397C87.676 77.5783 88.2573 75.822 89.1683 74.2331C90.2761 72.8034 91.6588 71.6097 93.2349 70.7223C94.0902 70.1981 94.8989 69.6014 95.6521 68.9389H87.9606C84.3972 75.5229 79.1177 81.0192 72.6824 84.8447C66.2471 88.6701 58.8961 90.6818 51.4097 90.6663ZM51.4097 10.9991C44.9116 10.9843 38.5191 12.6421 32.8473 15.8132C27.1755 18.9843 22.4154 23.5618 19.025 29.1053H83.7944C80.4039 23.5618 75.6438 18.9843 69.972 15.8132C64.3002 12.6421 57.9077 10.9843 51.4097 10.9991Z" fill="white"/>
<path d="M51.4097 7.37797C58.8961 7.36245 66.2471 9.37416 72.6824 13.1996C79.1177 17.025 84.3972 22.5214 87.9606 29.1054H95.6557C94.906 28.4444 94.1009 27.8489 93.2494 27.3255C91.6651 26.441 90.2748 25.2471 89.161 23.8147C88.2492 22.2248 87.6672 20.4672 87.45 18.6472C87.3393 17.1435 86.832 15.6959 85.9798 14.452C84.7366 13.5998 83.2896 13.0925 81.7864 12.9818C79.967 12.7655 78.21 12.1841 76.6207 11.2726C75.19 10.1621 73.9963 8.77627 73.1099 7.1969C72.4295 5.83963 71.3995 4.68836 70.126 3.86175C68.6628 3.54697 67.1419 3.6314 65.7226 4.10618C63.9517 4.6065 62.0978 4.74323 60.2726 4.50814C58.5404 4.0349 56.9214 3.21709 55.5125 2.10364C54.3474 1.08954 52.9298 0.409473 51.4097 0.135498C49.8903 0.407384 48.4727 1.08491 47.3068 2.0964C45.8979 3.20985 44.2789 4.02766 42.5467 4.5009C40.7238 4.72596 38.8745 4.58687 37.1058 4.0917C35.684 3.6179 34.162 3.52981 32.6951 3.8364C31.4264 4.67037 30.3998 5.8238 29.7185 7.18061C28.8315 8.76639 27.6345 10.1574 26.1986 11.2708C24.6098 12.1838 22.8526 12.7659 21.0329 12.9818C19.5297 13.0925 18.0827 13.5998 16.8395 14.452C15.9873 15.6959 15.48 17.1435 15.3693 18.6472C15.1524 20.4659 14.5711 22.2222 13.6601 23.8111C12.5496 25.2418 11.1638 26.4355 9.5844 27.3219C8.72915 27.8462 7.92046 28.4428 7.16722 29.1054H14.8569C18.4214 22.5219 23.7014 17.026 30.1368 13.2006C36.5723 9.37534 43.9232 7.3633 51.4097 7.37797ZM100.296 32.7266H2.52299C2.04278 32.7266 1.58225 32.9174 1.24269 33.2569C0.903133 33.5965 0.712372 34.057 0.712372 34.5372V63.5071C0.712372 63.9873 0.903133 64.4478 1.24269 64.7874C1.58225 65.127 2.04278 65.3177 2.52299 65.3177H100.296C100.777 65.3177 101.237 65.127 101.577 64.7874C101.916 64.4478 102.107 63.9873 102.107 63.5071V34.5372C102.107 34.057 101.916 33.5965 101.577 33.2569C101.237 32.9174 100.777 32.7266 100.296 32.7266ZM15.1973 61.6965H7.95484C7.47464 61.6965 7.0141 61.5057 6.67454 61.1662C6.33498 60.8266 6.14422 60.3661 6.14422 59.8859C6.14422 59.4057 6.33498 58.9451 6.67454 58.6056C7.0141 58.266 7.47464 58.0752 7.95484 58.0752H9.76546V42.5293L9.23495 43.0598C8.89346 43.3896 8.43609 43.5721 7.96136 43.568C7.48662 43.5639 7.03249 43.3734 6.69679 43.0377C6.36109 42.702 6.17067 42.2479 6.16654 41.7732C6.16242 41.2984 6.34492 40.8411 6.67473 40.4996L10.296 36.8783C10.5492 36.6252 10.8718 36.4528 11.2229 36.383C11.5741 36.3132 11.9381 36.349 12.2689 36.486C12.5997 36.623 12.8825 36.855 13.0814 37.1527C13.2804 37.4504 13.3866 37.8004 13.3867 38.1585V58.0752H15.1973C15.6775 58.0752 16.1381 58.266 16.4776 58.6056C16.8172 58.9451 17.0079 59.4057 17.0079 59.8859C17.0079 60.3661 16.8172 60.8266 16.4776 61.1662C16.1381 61.5057 15.6775 61.6965 15.1973 61.6965ZM31.4929 61.6965C25.5015 61.6965 20.6292 56.0111 20.6292 49.0222C20.6292 42.0332 25.5015 36.3478 31.4929 36.3478C37.4842 36.3478 42.3566 42.0332 42.3566 49.0222C42.3566 56.0111 37.4842 61.6965 31.4929 61.6965ZM56.8415 61.6965C50.8502 61.6965 45.9778 56.0111 45.9778 49.0222C45.9778 42.0332 50.8502 36.3478 56.8415 36.3478C62.8328 36.3478 67.7052 42.0332 67.7052 49.0222C67.7052 56.0111 62.8328 61.6965 56.8415 61.6965ZM71.3264 41.7797C71.3264 40.7054 71.645 39.6552 72.2419 38.7619C72.8387 37.8687 73.6871 37.1724 74.6796 36.7613C75.6722 36.3502 76.7643 36.2426 77.818 36.4522C78.8717 36.6618 79.8395 37.1791 80.5992 37.9388C81.3588 38.6984 81.8762 39.6663 82.0858 40.72C82.2954 41.7737 82.1878 42.8658 81.7767 43.8584C81.3655 44.8509 80.6693 45.6992 79.7761 46.2961C78.8828 46.893 77.8326 47.2115 76.7583 47.2115C75.3177 47.2115 73.9361 46.6393 72.9174 45.6206C71.8987 44.6019 71.3264 43.2203 71.3264 41.7797ZM74.9477 59.8859C74.5896 59.8858 74.2396 59.7795 73.942 59.5806C73.6443 59.3816 73.4123 59.0989 73.2752 58.7681C73.1382 58.4373 73.1024 58.0733 73.1722 57.7221C73.2421 57.3709 73.4144 57.0484 73.6676 56.7951L91.7737 38.689C92.1152 38.3591 92.5726 38.1766 93.0473 38.1808C93.5221 38.1849 93.9762 38.3753 94.3119 38.711C94.6476 39.0467 94.838 39.5009 94.8421 39.9756C94.8463 40.4503 94.6638 40.9077 94.334 41.2492L76.2278 59.3554C75.8883 59.6949 75.4278 59.8858 74.9477 59.8859ZM91.2432 61.6965C90.1689 61.6965 89.1187 61.3779 88.2255 60.781C87.3322 60.1842 86.636 59.3358 86.2249 58.3433C85.8137 57.3508 85.7062 56.2586 85.9157 55.2049C86.1253 54.1512 86.6427 53.1834 87.4023 52.4237C88.162 51.6641 89.1299 51.1467 90.1835 50.9371C91.2372 50.7276 92.3294 50.8351 93.3219 51.2462C94.3145 51.6574 95.1628 52.3536 95.7597 53.2468C96.3565 54.1401 96.6751 55.1903 96.6751 56.2646C96.6751 57.7052 96.1028 59.0868 95.0841 60.1055C94.0655 61.1242 92.6838 61.6965 91.2432 61.6965Z" fill="white"/>
<path d="M91.2432 58.0751C92.2432 58.0751 93.0539 57.2645 93.0539 56.2645C93.0539 55.2645 92.2432 54.4539 91.2432 54.4539C90.2433 54.4539 89.4326 55.2645 89.4326 56.2645C89.4326 57.2645 90.2433 58.0751 91.2432 58.0751Z" fill="white"/>
<path d="M76.7583 43.59C77.7583 43.59 78.5689 42.7793 78.5689 41.7794C78.5689 40.7794 77.7583 39.9688 76.7583 39.9688C75.7583 39.9688 74.9477 40.7794 74.9477 41.7794C74.9477 42.7793 75.7583 43.59 76.7583 43.59Z" fill="white"/>
</svg>
