<svg width="99" height="99" viewBox="0 0 99 99" fill="none" xmlns="http://www.w3.org/2000/svg">
<path d="M60.2281 26.0895L69.8796 19.0767C70.4095 18.6931 70.8041 18.1514 71.0067 17.5295C71.2094 16.9075 71.2097 16.2373 71.0076 15.6152C70.8055 14.9931 70.4114 14.4511 69.8819 14.067C69.3524 13.6829 68.7148 13.4765 68.0607 13.4776H56.1292L52.4388 2.13698C52.2368 1.51581 51.8434 0.974508 51.3149 0.590629C50.7865 0.206751 50.1501 0 49.4969 0C48.8437 0 48.2073 0.206751 47.6788 0.590629C47.1504 0.974508 46.757 1.51581 46.555 2.13698L42.8676 13.4837H30.9393C30.286 13.4836 29.6494 13.6903 29.1208 14.0743C28.5922 14.4582 28.1987 14.9996 27.9968 15.6209C27.7948 16.2423 27.7948 16.9116 27.9966 17.5329C28.1985 18.1543 28.5918 18.6958 29.1204 19.0798L38.7719 26.0926L35.0876 37.4394C34.8846 38.061 34.8838 38.7308 35.0853 39.3529C35.2868 39.975 35.6802 40.5172 36.2091 40.9017C36.7379 41.2862 37.375 41.4933 38.0289 41.4931C38.6827 41.493 39.3197 41.2857 39.8484 40.901L49.5 33.885L59.1515 40.8979C60.2281 41.6774 61.7191 41.6712 62.7894 40.8979C63.3184 40.5136 63.712 39.9716 63.9138 39.3497C64.1155 38.7278 64.115 38.0579 63.9124 37.4363L60.2281 26.0895Z" fill="white"/>
<path d="M27.8459 25.7834H22.8871C22.234 25.7841 21.5976 25.5775 21.0694 25.1934C20.5413 24.8092 20.1487 24.2674 19.9483 23.6458L18.4109 18.9314C18.2089 18.3102 17.8155 17.7689 17.2871 17.3851C16.7586 17.0012 16.1222 16.7944 15.469 16.7944C14.8158 16.7944 14.1794 17.0012 13.6509 17.3851C13.1225 17.7689 12.7291 18.3102 12.5271 18.9314L10.9959 23.6458C10.7947 24.2673 10.4015 24.8089 9.87277 25.1925C9.34407 25.5761 8.70722 25.7819 8.05401 25.7803H3.09831C2.44418 25.7793 1.80656 25.9856 1.27707 26.3697C0.747572 26.7538 0.353459 27.2958 0.151354 27.918C-0.0507507 28.5401 -0.0504436 29.2103 0.152231 29.8322C0.354906 30.4542 0.749516 30.9958 1.27936 31.3794L5.29156 34.2904C5.82053 34.6747 6.21414 35.2167 6.41588 35.8386C6.61763 36.4605 6.61714 37.1303 6.41448 37.7519L4.88323 42.4664C3.98613 45.235 7.28065 47.6479 9.64713 45.9248L13.6531 43.0108C14.181 42.6247 14.8181 42.4166 15.4721 42.4166C16.1261 42.4166 16.7632 42.6247 17.291 43.0108L21.3001 45.9248C23.6202 47.6138 26.9797 45.2999 26.061 42.4664L24.5297 37.755C24.3258 37.133 24.3247 36.4624 24.5265 35.8397C24.7283 35.217 25.1227 34.6745 25.6526 34.2904L29.6648 31.3794C30.1947 30.9958 30.5893 30.4542 30.792 29.8322C30.9946 29.2103 30.9949 28.5401 30.7928 27.918C30.5907 27.2958 30.1966 26.7538 29.6671 26.3697C29.1376 25.9856 28.5 25.7793 27.8459 25.7803V25.7834ZM74.4703 37.7519L72.939 42.4664C72.0419 45.235 75.3457 47.6417 77.7029 45.9248L81.709 43.0108C82.2368 42.6247 82.8739 42.4166 83.5279 42.4166C84.1819 42.4166 84.819 42.6247 85.3469 43.0108L89.356 45.9248C91.7286 47.6572 95.017 45.2474 94.1168 42.4664L92.5855 37.755C92.3817 37.133 92.3805 36.4624 92.5824 35.8397C92.7842 35.217 93.1785 34.6745 93.7084 34.2904L97.7206 31.3794C98.2505 30.9958 98.6451 30.4542 98.8478 29.8322C99.0504 29.2103 99.0508 28.5401 98.8486 27.918C98.6465 27.2958 98.2524 26.7538 97.7229 26.3697C97.1934 25.9856 96.5558 25.7793 95.9017 25.7803H90.9429C90.2902 25.7812 89.6541 25.5751 89.126 25.1916C88.5979 24.808 88.2051 24.2668 88.0041 23.6458L86.4698 18.9314C86.2678 18.3102 85.8744 17.7689 85.346 17.3851C84.8175 17.0012 84.1811 16.7944 83.5279 16.7944C82.8747 16.7944 82.2383 17.0012 81.7099 17.3851C81.1814 17.7689 80.788 18.3102 80.586 18.9314L79.0548 23.6458C78.8537 24.2673 78.4604 24.8089 77.9317 25.1925C77.403 25.5761 76.7661 25.7819 76.1129 25.7803H71.1541C70.5 25.7793 69.8624 25.9856 69.3329 26.3697C68.8034 26.7538 68.4093 27.2958 68.2072 27.918C68.0051 28.5401 68.0054 29.2103 68.2081 29.8322C68.4107 30.4542 68.8053 30.9958 69.3352 31.3794L73.3474 34.2904C73.8763 34.6747 74.27 35.2167 74.4717 35.8386C74.6734 36.4605 74.673 37.1303 74.4703 37.7519ZM54.1402 49.0337H44.8598C39.7433 49.0337 35.5795 53.1975 35.5795 58.3141V89.2485C35.5795 94.3651 39.7433 98.5289 44.8598 98.5289H54.1402C59.2567 98.5289 63.4205 94.3651 63.4205 89.2485V58.3141C63.4205 53.1975 59.2567 49.0337 54.1402 49.0337ZM89.7148 61.4075H80.4345C75.3179 61.4075 71.1541 65.5713 71.1541 70.6879V89.2485C71.1541 94.3651 75.3179 98.5289 80.4345 98.5289H89.7148C94.8314 98.5289 98.9951 94.3651 98.9951 89.2485V70.6879C98.9951 65.5713 94.8314 61.4075 89.7148 61.4075ZM18.5655 61.4075H9.2852C4.16864 61.4075 0.00486237 65.5713 0.00486237 70.6879V89.2485C0.00486237 94.3651 4.16864 98.5289 9.2852 98.5289H18.5655C23.6821 98.5289 27.8459 94.3651 27.8459 89.2485V70.6879C27.8459 65.5713 23.6821 61.4075 18.5655 61.4075Z" fill="white"/>
</svg>
