<svg width="88" height="88" viewBox="0 0 88 88" fill="none" xmlns="http://www.w3.org/2000/svg">
<path d="M67.982 30.1927C68.1086 33.6098 73.0001 33.6072 73.1254 30.1927V19.5633L67.982 21.4479V30.1927ZM16.7828 14.692L43.2178 24.3849C43.788 24.594 44.4137 24.5941 44.984 24.3853L71.4367 14.6924C73.674 13.8751 73.6732 10.6662 71.4368 9.84943L44.9929 0.15688C44.4227 -0.0522933 43.7971 -0.0522933 43.2269 0.15688L16.7831 9.84943C14.5461 10.6665 14.5469 13.8753 16.7828 14.692ZM26.3894 56.2421C26.3894 51.4202 22.4761 47.4971 17.6662 47.4971C6.1096 47.9368 6.11286 64.5492 17.6664 64.9871C22.4761 64.9871 26.3894 61.0641 26.3894 56.2421ZM79.277 56.2421C79.277 51.4202 75.3638 47.4971 70.5539 47.4971C58.9973 47.9368 59.0005 64.5492 70.5541 64.9871C75.3638 64.9871 79.277 61.0641 79.277 56.2421ZM35.3868 56.2421C35.3868 61.0641 39.3001 64.9871 44.11 64.9871C55.6666 64.5475 55.6635 47.9351 44.1098 47.4971C39.3001 47.4971 35.3868 51.4202 35.3868 56.2421ZM70.5537 64.9871C67.1095 64.9871 63.8955 65.9931 61.188 67.727C64.6104 71.6925 66.682 76.8479 66.682 82.477V88H85.4283C86.8486 88 88 86.8457 88 85.4219V82.477C88 72.8331 80.1737 64.9871 70.5537 64.9871Z" fill="white"/>
<path d="M44.2297 65.2734C34.4313 65.2734 26.4596 73.0217 26.4596 82.5458V88H62V82.5457C61.9998 73.0217 54.0282 65.2734 44.2297 65.2734ZM17.6401 65.2734C7.91325 65.2734 0 73.0217 0 82.5457V85.4539C0 86.86 1.16422 88 2.60025 88H21.2591V82.5457C21.2591 76.9311 23.3958 71.7935 26.9183 67.8619C24.2212 66.2221 21.0417 65.2734 17.6401 65.2734ZM60.9036 34.1069V25L47.0467 29.9592C45.3298 30.5779 43.4027 30.5779 41.6872 29.9577L27.8516 25.0029V34.1096C27.8516 34.6314 28.0154 35.1406 28.3207 35.5683C28.6261 35.996 29.0583 36.3215 29.5588 36.5007L43.4757 41.4845C44.0522 41.6909 44.6847 41.6909 45.2613 41.4847L59.1959 36.4983C59.6965 36.3191 60.1288 35.9936 60.4343 35.5659C60.7397 35.1381 60.9036 34.6288 60.9036 34.1069Z" fill="white"/>
</svg>
